<?xml version="1.0" encoding="UTF-8" standalone="no"?>
<!-- Created with Inkscape (http://www.inkscape.org/) -->

<svg
   xmlns:dc="http://purl.org/dc/elements/1.1/"
   xmlns:cc="http://creativecommons.org/ns#"
   xmlns:rdf="http://www.w3.org/1999/02/22-rdf-syntax-ns#"
   xmlns:svg="http://www.w3.org/2000/svg"
   xmlns="http://www.w3.org/2000/svg"
   xmlns:sodipodi="http://sodipodi.sourceforge.net/DTD/sodipodi-0.dtd"
   xmlns:inkscape="http://www.inkscape.org/namespaces/inkscape"
   width="210mm"
   height="297mm"
   viewBox="0 0 210 297"
   version="1.1"
   id="svg8"
   inkscape:version="0.92.4 (f8dce91, 2019-08-02)"
   sodipodi:docname="plans.svg">
  <defs
     id="defs2" />
  <sodipodi:namedview
     id="base"
     pagecolor="#ffffff"
     bordercolor="#666666"
     borderopacity="1.0"
     inkscape:pageopacity="0.0"
     inkscape:pageshadow="2"
     inkscape:zoom="0.35"
     inkscape:cx="683.85949"
     inkscape:cy="769.39901"
     inkscape:document-units="mm"
     inkscape:current-layer="layer1"
     showgrid="false"
     inkscape:window-width="1600"
     inkscape:window-height="1172"
     inkscape:window-x="1600"
     inkscape:window-y="0"
     inkscape:window-maximized="1" />
  <metadata
     id="metadata5">
    <rdf:RDF>
      <cc:Work
         rdf:about="">
        <dc:format>image/svg+xml</dc:format>
        <dc:type
           rdf:resource="http://purl.org/dc/dcmitype/StillImage" />
        <dc:title />
      </cc:Work>
    </rdf:RDF>
  </metadata>
  <g
     inkscape:label="Capa 1"
     inkscape:groupmode="layer"
     id="layer1">
    <path
       style="fill:#236fff;stroke-width:0.16244982;fill-opacity:1"
       d="m 55.680086,160.99143 c -3.126473,-0.81899 -5.786784,-3.01334 -7.172005,-5.91582 -1.062265,-2.22577 -0.985203,3.21495 -0.939363,-66.31818 l 0.04163,-63.163238 0.435235,-1.191503 c 0.852816,-2.334673 2.455013,-4.368284 4.462261,-5.663808 1.071518,-0.691573 3.180367,-1.464971 4.315027,-1.582481 0.383304,-0.03966 2.652403,-0.07637 5.042446,-0.0815 l 88.003863,-0.0093 c 5.07868,0 5.76119,0.03174 6.88967,0.320346 4.12521,1.055057 7.36981,4.59886 8.05028,8.792663 0.23557,1.451844 0.23557,124.577581 0,126.029421 -0.70504,4.34526 -4.04029,7.86285 -8.38946,8.84814 -1.06746,0.24183 -5.45065,0.2641 -50.35945,0.25592 -47.958949,-0.009 -49.220016,-0.0168 -50.380144,-0.32064 z m 101.177784,-4.40108 c 2.12562,-1.02625 3.469,-2.75006 3.89544,-4.99857 0.22197,-1.17047 0.22913,-123.325101 0.007,-124.679641 -0.44877,-2.740357 -2.54757,-4.996808 -5.22098,-5.613137 -0.40036,-0.0923 -3.03687,-0.165978 -6.01941,-0.168207 l -88.155576,0.02511 -4.819557,0.05397 -1.137147,0.594668 c -1.965902,1.02806 -3.323776,2.794528 -3.724112,4.844718 -0.113838,0.582996 -0.157376,3.48346 -0.124982,8.326698 l 0.06502,111.122131 0.04795,6.04439 0.517398,1.09219 c 0.618828,1.30633 1.700292,2.51031 2.785294,3.10084 1.781173,0.96944 -1.897867,0.90716 51.605342,0.87365 l 49.05985,-0.0308 1.21838,-0.58821 z M 75.714175,139.50551 c -3.850617,-0.60073 -6.77526,-2.93228 -8.146372,-6.49437 -0.570643,-1.48251 -0.717157,-4.16886 -0.313469,-5.74747 1.295487,-5.06593 6.227893,-8.29551 11.302714,-7.40066 3.598275,0.63448 6.547865,3.17641 7.712862,6.64688 0.966281,2.87851 0.630027,5.71622 -0.987697,8.33528 -1.264788,2.04768 -3.352614,3.63451 -5.69864,4.33121 -0.904318,0.26856 -3.074437,0.45314 -3.869398,0.32913 z m 3.655124,-4.62665 c 1.684323,-0.77995 2.889646,-2.38141 3.237941,-4.30212 0.441749,-2.43612 -0.883842,-4.99563 -3.19285,-6.16491 -0.851429,-0.43117 -1.089391,-0.4753 -2.563062,-0.4753 -1.539367,0 -1.677864,0.0289 -2.642789,0.55219 -1.218321,0.66065 -2.03533,1.52255 -2.614876,2.75854 -0.36314,0.77447 -0.428082,1.13478 -0.428082,2.37502 0,1.24024 0.06494,1.60055 0.428082,2.37502 0.610183,1.30134 1.455467,2.15805 2.796272,2.83408 1.122687,0.56606 1.211003,0.58368 2.623841,0.52349 1.133113,-0.0483 1.663066,-0.15537 2.355523,-0.47601 z m 52.214371,3.9352 c -0.79542,-0.34133 -1.30357,-1.26777 -1.21022,-2.20644 0.0298,-0.30021 1.17963,-2.66351 2.46506,-5.06679 0.29581,-0.55304 0.50297,-1.03526 0.46037,-1.07158 -0.0426,-0.0364 -1.174,-0.635 -2.51421,-1.33039 -3.28687,-1.70539 -3.4173,-1.7913 -3.73416,-2.45904 -0.37598,-0.79229 -0.20634,-1.59691 0.48174,-2.285 0.45595,-0.45594 0.65621,-0.53951 1.29295,-0.53951 0.63749,0 1.17524,0.22503 3.49394,1.46205 1.50726,0.80413 2.80205,1.46163 2.87731,1.46112 0.0753,0 0.82803,-1.3271 1.67283,-2.94799 1.47618,-2.83223 1.56352,-2.95922 2.24171,-3.25922 0.83691,-0.3702 1.4542,-0.28326 2.15084,0.30292 0.56751,0.47754 0.84456,1.33032 0.65121,2.00451 -0.0756,0.26358 -0.4618,1.08456 -0.85825,1.82444 -1.34515,2.51045 -2.10895,4.0373 -2.04695,4.09197 0.034,0.03 1.35666,0.73053 2.9393,1.55678 1.80228,0.94094 2.9777,1.65521 3.14563,1.91149 0.63603,0.97072 0.34988,2.23392 -0.65526,2.89251 -0.80983,0.53063 -1.46708,0.35144 -4.53522,-1.23639 -1.58449,-0.82 -2.90236,-1.4644 -2.92861,-1.43201 -0.0263,0.0324 -0.72269,1.35865 -1.54766,2.94727 -0.89157,1.71686 -1.6568,2.99115 -1.88669,3.14179 -0.47277,0.30976 -1.49732,0.43421 -1.95566,0.23751 z m -1.93615,-22.59637 c -6.11417,-2.28117 -6.59194,-2.48042 -6.9064,-2.8802 -0.70841,-0.90059 -0.55662,-2.11569 0.36072,-2.88758 0.62296,-0.52419 1.40012,-0.52329 2.85992,0.003 0.61924,0.22337 1.16728,0.40613 1.21787,0.40613 0.24932,0 -2.05394,-4.45161 -3.27802,-6.33555 -0.61241,-0.94255 -1.9084,-2.72766 -2.77155,-3.81757 -1.02641,-1.29606 -4.02476,-4.19611 -5.45407,-5.27529 -3.90119,-2.94548 -7.93269,-4.78728 -12.67024,-5.7884 -1.5802,-0.33393 -2.56293,-0.42724 -5.188957,-0.49268 -1.781762,-0.0444 -3.375651,-0.15357 -3.541979,-0.24258 -0.894335,-0.47864 -1.224112,-2.16629 -0.582652,-2.98177 0.591935,-0.75253 1.191134,-0.89569 3.748726,-0.89569 3.791712,0 6.845122,0.49935 10.519582,1.72033 8.83684,2.9364 15.96065,9.19407 21.11223,18.54529 0.65218,1.18385 1.19452,2.1525 1.20521,2.15254 0.0107,5e-5 -0.006,-0.64405 -0.0362,-1.43132 -0.0674,-1.73422 0.18274,-2.47738 0.97108,-2.88504 1.0543,-0.5452 2.22746,-0.26734 2.84397,0.67358 0.23362,0.35655 0.28819,1.19463 0.39314,6.03793 0.067,3.09315 0.063,5.77509 -0.009,5.95987 -0.21724,0.5578 -1.02191,1.19844 -1.62559,1.29422 -0.44097,0.07 -1.1519,-0.1274 -3.16777,-0.87951 z m -56.103581,-0.89671 c -0.77982,-0.65617 -0.896072,-1.54671 -0.787563,-6.03302 0.104156,-4.3062 0.391698,-6.56034 1.322644,-10.3687 2.284276,-9.34456 6.86244,-17.48966 13.736336,-24.4386 5.910722,-5.97525 12.781554,-10.59547 21.688394,-14.5841 l 1.94939,-0.87297 -5.15327,0.0477 -5.15328,0.0478 -0.50958,-0.5082 c -0.66806,-0.66625 -0.805182,-1.68845 -0.32834,-2.44768 0.63404,-1.00952 0.53604,-0.99303 7.00209,-1.1782 3.26114,-0.0934 7.11164,-0.17003 8.55667,-0.17032 2.57491,-4.9e-4 2.63711,0.008 3.11632,0.41093 0.67207,0.5655 0.91808,1.3589 0.66574,2.14713 -0.17625,0.55061 -2.44923,6.67277 -3.84493,10.35618 -0.3047,0.80413 -0.62868,1.70934 -0.71996,2.01158 -0.32277,1.06869 -1.61384,1.83859 -2.64797,1.57904 -0.21973,-0.0551 -0.59695,-0.27012 -0.83829,-0.47771 -0.35602,-0.30623 -0.44986,-0.54352 -0.49744,-1.25782 -0.0515,-0.77368 0.0775,-1.23481 1.06425,-3.80449 0.61759,-1.60825 1.10193,-2.94645 1.07632,-2.97378 -0.0256,-0.0273 -1.13295,0.43543 -2.46073,1.02832 C 99.772131,68.74969 91.371795,75.2991 85.473678,83.565 c -0.604559,0.84726 -1.212219,1.76105 -1.350341,2.03062 -0.138121,0.26958 -0.457264,0.79151 -0.709206,1.15986 -0.64876,0.94852 -2.594111,4.89316 -3.314904,6.72175 -2.373746,6.02193 -3.388287,11.54287 -3.310372,18.0144 l 0.03794,3.15152 -0.594539,0.54485 c -0.506684,0.46435 -0.713068,0.54486 -1.396708,0.54486 -0.62161,0 -0.912337,-0.0927 -1.291613,-0.41184 z M 127.66681,60.59282 c -0.54393,-0.24319 -1.18706,-1.2632 -1.18706,-1.88271 0,-0.18736 0.69386,-1.68538 1.5419,-3.32893 l 1.5419,-2.98828 -1.33884,-0.71622 c -0.73636,-0.39392 -2.03331,-1.08014 -2.88211,-1.52493 -1.69837,-0.88998 -2.27429,-1.50692 -2.27429,-2.43627 0,-0.74563 0.39152,-1.45329 0.96938,-1.75211 0.94021,-0.4862 1.48965,-0.33545 4.50106,1.235 1.60583,0.83743 2.90182,1.42004 2.98127,1.34021 0.0773,-0.0777 0.76847,-1.34741 1.53592,-2.82164 0.76746,-1.47423 1.57583,-2.84164 1.79638,-3.03869 1.24159,-1.10928 3.32132,-0.13845 3.32321,1.5513 4.9e-4,0.3689 -0.46858,1.44291 -1.46143,3.34678 -0.80413,1.54197 -1.46206,2.88116 -1.46206,2.976 0,0.0948 1.22447,0.80713 2.72104,1.58288 1.49657,0.77575 2.89739,1.58146 3.11291,1.79047 0.29061,0.28179 0.41056,0.60511 0.46412,1.25092 0.0634,0.76462 0.0191,0.93406 -0.36314,1.3883 -0.48463,0.57598 -1.41866,0.90562 -2.03889,0.7196 -0.22185,-0.0665 -1.01701,-0.44856 -1.76701,-0.84893 -0.74999,-0.40038 -1.68573,-0.89348 -2.0794,-1.09577 -0.44217,-0.22723 -0.672,-0.43863 -0.60127,-0.55307 0.0676,-0.10936 0.0427,-0.14085 -0.0609,-0.0769 -0.18269,0.11291 -1.01946,-0.19206 -1.1929,-0.43477 -0.0548,-0.0767 -0.24776,0.10452 -0.42875,0.40282 -0.34207,0.56377 -2.19056,4.05115 -2.63088,4.96346 -0.42367,0.87778 -1.80461,1.3608 -2.72017,0.95144 z"
       id="path21"
       inkscape:connector-curvature="0"
       sodipodi:nodetypes="ccsccccccccccsccccccccccccccccscccccsccccccccsccscccccccccccscccsccccccccccccccccsccsccccsscccccccccccscsscccscccccccccccccccccsccscccssccsscccsscsscccccscccccccc" />
  </g>
</svg>
